<svg width="234" height="241" viewBox="0 0 234 241" fill="none" xmlns="http://www.w3.org/2000/svg">
<g clip-path="url(#clip0_742_179)">
<path d="M159.813 80.0988C158.94 79.0331 157.844 78.1726 156.602 77.5785C155.36 76.9844 154.002 76.6712 152.625 76.6613H148.875L149.813 71.3488C149.988 70.0863 149.913 68.8015 149.591 67.5682C149.27 66.3348 148.708 65.177 147.938 64.1613C146.142 62.261 143.675 61.1393 141.063 61.0363H66.6875C65.1434 61.008 63.6388 61.5253 62.4385 62.497C61.2381 63.4687 60.4189 64.8326 60.125 66.3488C59.9891 67.2445 60.0495 68.1591 60.3021 69.0292C60.5547 69.8993 60.9934 70.7041 61.588 71.3878C62.1825 72.0715 62.9185 72.6177 63.7451 72.9887C64.5717 73.3597 65.4691 73.5465 66.375 73.5363H89.1875C90.5355 73.5623 91.862 73.8788 93.0766 74.4641C94.2912 75.0495 95.3652 75.8899 96.2254 76.9281C97.0856 77.9663 97.7118 79.1778 98.0612 80.48C98.4106 81.7822 98.475 83.1444 98.25 84.4738L90.75 127.599C90.3863 129.753 89.2818 131.712 87.6272 133.139C85.9725 134.565 83.8717 135.369 81.6875 135.411H57C55.5379 135.382 54.1116 135.866 52.9697 136.78C51.8277 137.693 51.0422 138.978 50.75 140.411L48.25 153.849C48.058 155.134 48.1547 156.446 48.5331 157.689C48.9115 158.932 49.562 160.076 50.4375 161.036C51.2435 161.997 52.2467 162.773 53.3789 163.312C54.5112 163.852 55.7461 164.141 57 164.161H64.8125C66.1724 168.656 68.9424 172.593 72.713 175.391C76.4835 178.19 81.0545 179.701 85.75 179.701C90.4456 179.701 95.0165 178.19 98.7871 175.391C102.558 172.593 105.328 168.656 106.688 164.161H121.063C122.422 168.656 125.192 172.593 128.963 175.391C132.734 178.19 137.304 179.701 142 179.701C146.696 179.701 151.267 178.19 155.037 175.391C158.808 172.593 161.578 168.656 162.938 164.161H169.188C171.536 164.117 173.794 163.247 175.565 161.704C177.337 160.161 178.508 158.044 178.875 155.724L185.75 115.724L159.813 80.0988ZM85.75 167.286C83.2636 167.286 80.879 166.299 79.1209 164.54C77.3627 162.782 76.375 160.398 76.375 157.911C76.375 155.425 77.3627 153.04 79.1209 151.282C80.879 149.524 83.2636 148.536 85.75 148.536C88.2364 148.536 90.621 149.524 92.3791 151.282C94.1373 153.04 95.125 155.425 95.125 157.911C95.125 160.398 94.1373 162.782 92.3791 164.54C90.621 166.299 88.2364 167.286 85.75 167.286ZM142 167.286C139.514 167.286 137.129 166.299 135.371 164.54C133.613 162.782 132.625 160.398 132.625 157.911C132.625 155.425 133.613 153.04 135.371 151.282C137.129 149.524 139.514 148.536 142 148.536C144.486 148.536 146.871 149.524 148.629 151.282C150.387 153.04 151.375 155.425 151.375 157.911C151.375 160.398 150.387 162.782 148.629 164.54C146.871 166.299 144.486 167.286 142 167.286ZM142.313 114.161L146.688 89.1613H150.75L169.188 114.161H142.313Z" fill="#523C29"/>
<path d="M54.5 92.2861H85.75C87.4076 92.2861 88.9973 91.6277 90.1694 90.4555C91.3415 89.2834 92 87.6937 92 86.0361C92 84.3785 91.3415 82.7888 90.1694 81.6167C88.9973 80.4446 87.4076 79.7861 85.75 79.7861H54.5C52.8424 79.7861 51.2527 80.4446 50.0806 81.6167C48.9085 82.7888 48.25 84.3785 48.25 86.0361C48.25 87.6937 48.9085 89.2834 50.0806 90.4555C51.2527 91.6277 52.8424 92.2861 54.5 92.2861Z" fill="#523C29"/>
<path d="M88.875 104.786C88.875 103.129 88.2165 101.539 87.0444 100.367C85.8723 99.1946 84.2826 98.5361 82.625 98.5361H57.625C55.9674 98.5361 54.3777 99.1946 53.2056 100.367C52.0335 101.539 51.375 103.129 51.375 104.786C51.375 106.444 52.0335 108.033 53.2056 109.206C54.3777 110.378 55.9674 111.036 57.625 111.036H82.625C84.2826 111.036 85.8723 110.378 87.0444 109.206C88.2165 108.033 88.875 106.444 88.875 104.786Z" fill="#523C29"/>
<path d="M60.75 117.286C59.0924 117.286 57.5027 117.945 56.3306 119.117C55.1585 120.289 54.5 121.879 54.5 123.536C54.5 125.194 55.1585 126.783 56.3306 127.956C57.5027 129.128 59.0924 129.786 60.75 129.786H79.5C81.1576 129.786 82.7473 129.128 83.9194 127.956C85.0915 126.783 85.75 125.194 85.75 123.536C85.75 121.879 85.0915 120.289 83.9194 119.117C82.7473 117.945 81.1576 117.286 79.5 117.286H60.75Z" fill="#523C29"/>
</g>
<path d="M231.51 120.411C231.51 185.21 180.188 237.642 117 237.642C53.8118 237.642 2.49015 185.21 2.49015 120.411C2.49015 55.6116 53.8118 3.17993 117 3.17993C180.188 3.17993 231.51 55.6116 231.51 120.411Z" stroke="#523C29" stroke-width="5"/>
<defs>
<clipPath id="clip0_742_179">
<rect width="150" height="150" fill="white" transform="translate(42 45.4111)"/>
</clipPath>
</defs>
</svg>
