<svg width="1060" height="1060" viewBox="0 0 1060 1060" fill="none" xmlns="http://www.w3.org/2000/svg">
<mask id="path-1-inside-1_739_100" fill="white">
<path d="M529.956 1059.46C450.402 1059.46 371.87 1041.54 300.195 1007.02C228.52 972.498 165.545 922.272 115.947 860.071C66.3497 797.87 31.4052 725.292 13.7099 647.731C-3.98543 570.17 -3.97675 489.618 13.7353 412.06C31.4473 334.503 66.4075 261.933 116.018 199.743C165.629 137.552 228.616 87.3398 300.298 52.8357C371.98 18.3317 450.516 0.422934 530.07 0.440076C609.624 0.457217 688.152 18.3998 759.82 52.9347L743.861 86.0525C677.169 53.9152 604.093 37.2184 530.062 37.2024C456.031 37.1865 382.948 53.8518 316.242 85.9604C249.537 118.069 190.923 164.795 144.757 222.668C98.5902 280.541 66.0573 348.072 49.5749 420.245C33.0926 492.418 33.0845 567.377 49.5513 639.554C66.0181 711.73 98.5365 779.269 144.691 837.151C190.845 895.034 249.448 941.773 316.147 973.896C382.845 1006.02 455.925 1022.7 529.956 1022.7L529.956 1059.46Z"/>
</mask>
<path d="M529.956 1059.46C450.402 1059.46 371.87 1041.54 300.195 1007.02C228.52 972.498 165.545 922.272 115.947 860.071C66.3497 797.87 31.4052 725.292 13.7099 647.731C-3.98543 570.17 -3.97675 489.618 13.7353 412.06C31.4473 334.503 66.4075 261.933 116.018 199.743C165.629 137.552 228.616 87.3398 300.298 52.8357C371.98 18.3317 450.516 0.422934 530.07 0.440076C609.624 0.457217 688.152 18.3998 759.82 52.9347L743.861 86.0525C677.169 53.9152 604.093 37.2184 530.062 37.2024C456.031 37.1865 382.948 53.8518 316.242 85.9604C249.537 118.069 190.923 164.795 144.757 222.668C98.5902 280.541 66.0573 348.072 49.5749 420.245C33.0926 492.418 33.0845 567.377 49.5513 639.554C66.0181 711.73 98.5365 779.269 144.691 837.151C190.845 895.034 249.448 941.773 316.147 973.896C382.845 1006.02 455.925 1022.7 529.956 1022.7L529.956 1059.46Z" stroke="#A45A2B" stroke-width="50" mask="url(#path-1-inside-1_739_100)"/>
<line x1="132.714" y1="654.515" x2="980.956" y2="654.515" stroke="url(#paint0_linear_739_100)" stroke-width="5"/>
<path d="M137.642 595.965C130.295 595.965 121.998 595.331 112.752 594.065C107.685 593.431 104.202 592.101 102.302 590.075C100.402 588.048 99.5783 584.755 99.8317 580.195C100.718 567.655 102.808 552.201 106.102 533.835C109.395 515.341 113.385 497.545 118.072 480.445C118.958 477.278 120.732 475.061 123.392 473.795C126.052 472.528 129.535 471.895 133.842 471.895C141.568 471.895 145.432 474.048 145.432 478.355C145.432 480.128 145.052 482.155 144.292 484.435C140.998 494.568 137.705 508.185 134.412 525.285C131.118 542.258 128.775 558.471 127.382 573.925C131.182 574.305 135.488 574.495 140.302 574.495C162.468 574.495 178.998 567.781 189.892 554.355C200.912 540.928 206.422 523.005 206.422 500.585C206.422 485.511 202.115 473.858 193.502 465.625C184.888 457.391 172.728 453.275 157.022 453.275C146.888 453.275 136.818 454.858 126.812 458.025C116.932 461.191 108.002 465.371 100.022 470.565C98.375 471.705 96.6017 472.275 94.7017 472.275C92.5483 472.275 90.8383 471.388 89.5717 469.615C88.305 467.715 87.6717 465.435 87.6717 462.775C87.6717 459.735 88.1783 457.265 89.1917 455.365C90.205 453.338 91.915 451.501 94.3217 449.855C103.062 443.901 113.322 439.405 125.102 436.365C136.882 433.198 148.218 431.615 159.112 431.615C174.565 431.615 187.928 434.338 199.202 439.785C210.475 445.105 219.152 452.958 225.232 463.345C231.312 473.731 234.352 486.271 234.352 500.965C234.352 520.091 230.552 536.811 222.952 551.125C215.352 565.311 204.268 576.331 189.702 584.185C175.135 592.038 157.782 595.965 137.642 595.965ZM343.21 552.645C344.856 552.645 346.123 553.405 347.01 554.925C348.023 556.445 348.53 558.535 348.53 561.195C348.53 566.261 347.326 570.188 344.92 572.975C340.233 578.675 333.583 583.931 324.97 588.745C316.483 593.558 307.363 595.965 297.61 595.965C284.31 595.965 273.986 592.355 266.64 585.135C259.293 577.915 255.62 568.035 255.62 555.495C255.62 546.755 257.456 538.648 261.13 531.175C264.803 523.575 269.87 517.558 276.33 513.125C282.916 508.691 290.326 506.475 298.56 506.475C305.906 506.475 311.796 508.691 316.23 513.125C320.663 517.431 322.88 523.321 322.88 530.795C322.88 539.535 319.713 547.071 313.38 553.405C307.173 559.611 296.596 564.551 281.65 568.225C284.816 574.051 290.833 576.965 299.7 576.965C305.4 576.965 311.86 575.001 319.08 571.075C326.426 567.021 332.76 561.765 338.08 555.305C339.6 553.531 341.31 552.645 343.21 552.645ZM295.33 525.095C290.643 525.095 286.653 527.818 283.36 533.265C280.193 538.711 278.61 545.298 278.61 553.025V553.405C286.083 551.631 291.973 548.971 296.28 545.425C300.586 541.878 302.74 537.761 302.74 533.075C302.74 530.668 302.043 528.768 300.65 527.375C299.383 525.855 297.61 525.095 295.33 525.095ZM399.37 568.225C400.763 566.958 402.156 566.325 403.55 566.325C405.07 566.325 406.273 567.211 407.16 568.985C408.173 570.631 408.68 572.658 408.68 575.065C408.68 580.385 406.78 584.628 402.98 587.795C396.393 593.241 388.92 595.965 380.56 595.965C368.526 595.965 359.723 590.961 354.15 580.955C348.576 570.821 345.79 557.648 345.79 541.435C345.79 525.981 347.753 508.375 351.68 488.615C355.733 468.855 361.623 451.881 369.35 437.695C377.203 423.508 386.513 416.415 397.28 416.415C403.36 416.415 408.11 419.265 411.53 424.965C415.076 430.538 416.85 438.581 416.85 449.095C416.85 464.168 412.67 481.648 404.31 501.535C396.076 521.421 384.803 541.055 370.49 560.435C371.376 565.628 372.96 569.365 375.24 571.645C377.52 573.925 380.623 575.065 384.55 575.065C386.703 575.065 389.11 574.431 391.77 573.165C394.556 571.898 397.09 570.251 399.37 568.225ZM393.1 435.225C390.186 435.225 386.893 440.481 383.22 450.995C379.546 461.508 376.316 474.555 373.53 490.135C370.743 505.715 369.223 520.661 368.97 534.975C377.963 520.155 385.12 505.335 390.44 490.515C395.76 475.568 398.42 461.951 398.42 449.665C398.42 440.038 396.646 435.225 393.1 435.225ZM540.504 596.535C523.657 596.535 510.167 593.368 500.034 587.035C489.901 580.575 484.834 570.758 484.834 557.585C484.834 550.618 486.037 545.298 488.444 541.625C490.851 537.951 494.397 536.115 499.084 536.115C502.504 536.115 505.291 537.001 507.444 538.775C509.597 540.548 510.674 542.828 510.674 545.615C510.674 548.148 510.484 550.365 510.104 552.265C510.104 552.771 509.977 553.658 509.724 554.925C509.597 556.191 509.534 557.521 509.534 558.915C509.534 564.615 512.384 568.858 518.084 571.645C523.911 574.431 532.017 575.825 542.404 575.825C553.171 575.825 561.594 573.925 567.674 570.125C573.754 566.198 576.794 560.751 576.794 553.785C576.794 549.478 575.401 545.805 572.614 542.765C569.827 539.598 566.344 537.001 562.164 534.975C557.984 532.821 552.094 530.225 544.494 527.185C534.741 523.385 526.761 519.775 520.554 516.355C514.474 512.935 509.217 508.311 504.784 502.485C500.477 496.531 498.324 489.185 498.324 480.445C498.324 471.325 500.731 463.218 505.544 456.125C510.484 449.031 517.514 443.521 526.634 439.595C535.881 435.668 546.711 433.705 559.124 433.705C568.371 433.705 576.857 435.098 584.584 437.885C592.311 440.545 598.454 444.661 603.014 450.235C607.701 455.808 610.044 462.648 610.044 470.755C610.044 478.735 608.841 484.751 606.434 488.805C604.027 492.858 600.481 494.885 595.794 494.885C592.501 494.885 589.714 493.871 587.434 491.845C585.281 489.818 584.204 487.411 584.204 484.625C584.204 482.218 584.394 480.001 584.774 477.975C585.154 474.175 585.344 471.768 585.344 470.755C585.344 465.435 582.747 461.381 577.554 458.595C572.361 455.808 565.901 454.415 558.174 454.415C547.281 454.415 538.921 456.441 533.094 460.495C527.394 464.421 524.544 469.995 524.544 477.215C524.544 482.028 526.001 486.145 528.914 489.565C531.954 492.985 535.691 495.835 540.124 498.115C544.557 500.395 550.764 503.118 558.744 506.285C568.371 510.211 576.097 513.758 581.924 516.925C587.751 520.091 592.691 524.398 596.744 529.845C600.924 535.291 603.014 542.005 603.014 549.985C603.014 564.931 597.314 576.458 585.914 584.565C574.641 592.545 559.504 596.535 540.504 596.535ZM654.002 595.965C646.149 595.965 639.879 593.115 635.192 587.415C630.506 581.715 628.162 574.241 628.162 564.995C628.162 554.861 630.506 545.298 635.192 536.305C639.879 527.185 646.086 519.901 653.812 514.455C661.666 508.881 669.962 506.095 678.702 506.095C681.489 506.095 683.326 506.665 684.212 507.805C685.226 508.818 686.049 510.718 686.682 513.505C689.342 512.998 692.129 512.745 695.042 512.745C701.249 512.745 704.352 514.961 704.352 519.395C704.352 522.055 703.402 528.388 701.502 538.395C698.589 552.961 697.132 563.095 697.132 568.795C697.132 570.695 697.576 572.215 698.462 573.355C699.476 574.495 700.742 575.065 702.262 575.065C704.669 575.065 707.582 573.545 711.002 570.505C714.422 567.338 719.046 562.271 724.872 555.305C726.392 553.531 728.102 552.645 730.002 552.645C731.649 552.645 732.916 553.405 733.802 554.925C734.816 556.445 735.322 558.535 735.322 561.195C735.322 566.261 734.119 570.188 731.712 572.975C726.519 579.435 721.009 584.881 715.182 589.315C709.356 593.748 703.719 595.965 698.272 595.965C694.092 595.965 690.229 594.571 686.682 591.785C683.262 588.871 680.666 584.945 678.892 580.005C672.306 590.645 664.009 595.965 654.002 595.965ZM660.842 576.775C663.629 576.775 666.289 575.128 668.822 571.835C671.356 568.541 673.192 564.171 674.332 558.725L681.362 523.765C676.042 523.891 671.102 525.918 666.542 529.845C662.109 533.645 658.562 538.711 655.902 545.045C653.242 551.378 651.912 558.091 651.912 565.185C651.912 569.111 652.672 572.025 654.192 573.925C655.839 575.825 658.056 576.775 660.842 576.775ZM750.66 595.965C744.96 595.965 740.274 593.368 736.6 588.175C733.054 582.855 731.28 576.268 731.28 568.415C731.28 558.915 731.914 550.238 733.18 542.385C734.447 534.405 736.537 525.981 739.45 517.115C740.717 513.315 742.49 510.591 744.77 508.945C747.05 507.298 750.66 506.475 755.6 506.475C758.387 506.475 760.287 506.918 761.3 507.805C762.44 508.691 763.01 510.021 763.01 511.795C763.01 512.808 762.314 516.228 760.92 522.055C759.654 526.741 758.64 530.985 757.88 534.785C755.347 548.085 754.08 556.951 754.08 561.385C754.08 564.045 754.397 565.945 755.03 567.085C755.664 568.098 756.677 568.605 758.07 568.605C759.97 568.605 762.314 566.705 765.1 562.905C768.014 559.105 771.054 553.341 774.22 545.615C777.514 537.888 780.68 528.388 783.72 517.115C784.734 513.315 786.254 510.591 788.28 508.945C790.434 507.298 793.6 506.475 797.78 506.475C800.694 506.475 802.72 506.855 803.86 507.615C805 508.248 805.57 509.515 805.57 511.415C805.57 514.581 803.987 523.258 800.82 537.445C797.274 553.658 795.5 563.665 795.5 567.465C795.5 569.871 796.007 571.771 797.02 573.165C798.034 574.431 799.364 575.065 801.01 575.065C803.544 575.065 806.52 573.545 809.94 570.505C813.487 567.338 818.174 562.271 824 555.305C825.52 553.531 827.23 552.645 829.13 552.645C830.777 552.645 832.044 553.405 832.93 554.925C833.944 556.445 834.45 558.535 834.45 561.195C834.45 566.261 833.247 570.188 830.84 572.975C825.394 579.688 819.504 585.198 813.17 589.505C806.964 593.811 799.87 595.965 791.89 595.965C785.81 595.965 781.314 593.621 778.4 588.935C775.614 584.248 774.22 577.661 774.22 569.175C772.067 577.788 768.837 584.438 764.53 589.125C760.224 593.685 755.6 595.965 750.66 595.965ZM866.734 595.965C854.321 595.965 844.631 592.481 837.664 585.515C830.824 578.421 827.404 569.111 827.404 557.585C827.404 547.325 829.431 538.331 833.484 530.605C837.537 522.878 842.794 516.925 849.254 512.745C855.714 508.565 862.491 506.475 869.584 506.475C876.551 506.475 881.934 508.565 885.734 512.745C889.661 516.798 891.624 522.055 891.624 528.515C891.624 533.835 890.421 538.331 888.014 542.005C885.734 545.678 882.694 547.515 878.894 547.515C876.487 547.515 874.524 546.945 873.004 545.805C871.611 544.665 870.914 543.081 870.914 541.055C870.914 540.168 871.041 539.155 871.294 538.015C871.547 536.875 871.737 536.051 871.864 535.545C872.497 533.645 872.814 531.871 872.814 530.225C872.814 528.578 872.371 527.311 871.484 526.425C870.724 525.538 869.584 525.095 868.064 525.095C865.151 525.095 862.427 526.425 859.894 529.085C857.361 531.618 855.334 535.101 853.814 539.535C852.294 543.968 851.534 548.845 851.534 554.165C851.534 568.858 857.931 576.205 870.724 576.205C875.917 576.205 881.491 574.495 887.444 571.075C893.524 567.528 899.477 562.271 905.304 555.305C906.824 553.531 908.534 552.645 910.434 552.645C912.081 552.645 913.347 553.405 914.234 554.925C915.247 556.445 915.754 558.535 915.754 561.195C915.754 566.008 914.551 569.935 912.144 572.975C906.191 580.321 899.034 586.021 890.674 590.075C882.441 594.001 874.461 595.965 866.734 595.965ZM979.815 558.345C981.462 558.345 982.729 559.105 983.615 560.625C984.629 562.145 985.135 564.235 985.135 566.895C985.135 571.455 984.059 575.381 981.905 578.675C978.359 584.121 973.672 588.365 967.845 591.405C962.145 594.445 955.305 595.965 947.325 595.965C935.165 595.965 925.729 592.355 919.015 585.135C912.302 577.788 908.945 567.908 908.945 555.495C908.945 546.755 910.782 538.648 914.455 531.175C918.129 523.575 923.195 517.558 929.655 513.125C936.242 508.691 943.652 506.475 951.885 506.475C959.232 506.475 965.122 508.691 969.555 513.125C973.989 517.431 976.205 523.321 976.205 530.795C976.205 539.535 973.039 547.071 966.705 553.405C960.499 559.611 949.859 564.551 934.785 568.225C937.825 574.051 942.955 576.965 950.175 576.965C955.369 576.965 959.612 575.761 962.905 573.355C966.325 570.948 970.252 566.895 974.685 561.195C976.205 559.295 977.915 558.345 979.815 558.345ZM948.655 525.095C943.969 525.095 939.979 527.818 936.685 533.265C933.519 538.711 931.935 545.298 931.935 553.025V553.405C939.409 551.631 945.299 548.971 949.605 545.425C953.912 541.878 956.065 537.761 956.065 533.075C956.065 530.668 955.369 528.768 953.975 527.375C952.709 525.855 950.935 525.095 948.655 525.095Z" fill="#A45A2B"/>
<g clip-path="url(#clip0_739_100)">
<path d="M850.5 143C778.526 143.011 720.011 201.75 720 274C720.011 346.25 778.526 404.989 850.5 405C922.474 404.989 980.989 346.25 981 274C980.989 201.75 922.471 143.011 850.5 143ZM937.803 249.708C941.188 249.708 943.931 252.461 943.931 255.855C943.931 259.257 941.188 262.01 937.803 262.01C934.421 262.01 931.678 259.257 931.678 255.855C931.678 252.461 934.421 249.708 937.803 249.708ZM923.099 201.04C927.543 201.04 931.143 204.655 931.143 209.109C931.143 213.574 927.542 217.188 923.099 217.188C918.658 217.188 915.061 213.574 915.061 209.109C915.061 204.655 918.658 201.04 923.099 201.04ZM875.313 178.363C878.02 178.363 880.214 180.565 880.214 183.281C880.214 186.002 878.021 188.204 875.313 188.204C872.606 188.204 870.41 186.002 870.41 183.281C870.41 180.564 872.606 178.363 875.313 178.363ZM900.647 260.49C900.647 286.588 877.988 307.745 850.04 307.745C822.093 307.745 799.434 286.588 799.434 260.49C799.434 234.388 822.093 213.232 850.04 213.232C877.988 213.231 900.647 234.388 900.647 260.49ZM902.27 325.965C902.27 329.366 899.527 332.119 896.142 332.119C892.761 332.119 890.018 329.366 890.018 325.965C890.018 322.57 892.76 319.817 896.142 319.817C899.528 319.817 902.27 322.57 902.27 325.965ZM859.385 339.5C859.385 342.221 857.188 344.423 854.481 344.423C851.774 344.423 849.581 342.221 849.581 339.5C849.581 336.783 851.774 334.581 854.481 334.581C857.188 334.581 859.385 336.783 859.385 339.5ZM807.92 317.355C807.92 320.757 805.178 323.51 801.792 323.51C798.407 323.51 795.665 320.757 795.665 317.355C795.665 313.961 798.407 311.208 801.792 311.208C805.178 311.208 807.92 313.961 807.92 317.355ZM831.201 184.514C834.586 184.514 837.329 187.267 837.329 190.662C837.329 194.064 834.586 196.817 831.201 196.817C827.815 196.817 825.073 194.064 825.073 190.662C825.073 187.267 827.815 184.514 831.201 184.514ZM753.167 233.207C761.862 207.041 781.721 186.049 807.102 175.894C809.931 174.762 813.14 176.146 814.267 178.986C815.394 181.826 814.013 185.047 811.183 186.179C788.825 195.115 771.275 213.667 763.628 236.709C762.666 239.61 759.543 241.178 756.653 240.208C753.763 239.243 752.201 236.107 753.167 233.207ZM772.459 292.14C772.459 296.606 768.858 300.22 764.414 300.22C759.974 300.22 756.376 296.606 756.376 292.14C756.376 287.686 759.974 284.072 764.414 284.072C768.859 284.072 772.459 287.686 772.459 292.14ZM850.5 388.394C802.729 388.394 761.848 358.873 744.907 317.028C749.839 321.688 755.982 325.071 762.551 325.579C785.753 327.363 776.081 358.571 803.149 355.003C841.249 349.983 829.251 369.27 850.518 369.27C871.785 369.27 859.521 352.171 897.887 355.003C922.05 356.787 909.485 324.686 938.485 325.579C944.157 325.752 949.499 323.341 954.025 319.633C955.404 317.273 956.664 314.844 957.863 312.379C942.147 356.675 900.019 388.394 850.5 388.394Z" fill="#A45A2B"/>
</g>
<defs>
<linearGradient id="paint0_linear_739_100" x1="132.714" y1="657.515" x2="980.956" y2="657.515" gradientUnits="userSpaceOnUse">
<stop stop-color="#A45A2B"/>
<stop offset="1" stop-color="#A45A2B" stop-opacity="0.5"/>
</linearGradient>
<clipPath id="clip0_739_100">
<rect width="261" height="262" fill="white" transform="translate(720 143)"/>
</clipPath>
</defs>
</svg>
