<svg width="235" height="240" viewBox="0 0 235 240" fill="none" xmlns="http://www.w3.org/2000/svg">
<path d="M231.854 120C231.854 184.799 180.532 237.231 117.344 237.231C54.1556 237.231 2.83386 184.799 2.83386 120C2.83386 55.2006 54.1556 2.76892 117.344 2.76892C180.532 2.76892 231.854 55.2006 231.854 120Z" stroke="#523C29" stroke-width="5"/>
<g clip-path="url(#clip0_742_178)">
<path d="M190.534 86.4381C188.487 82.2709 184.975 78.697 180.465 75.5748C173.679 70.9011 164.523 67.1965 153.738 64.5885C142.959 61.9919 130.558 60.5221 117.343 60.5221C97.208 60.5303 78.9654 63.9164 65.4479 69.5701C58.6891 72.4146 53.0901 75.8168 49.0073 79.8484C46.9712 81.8704 45.3162 84.0563 44.1514 86.4381C42.9918 88.8117 42.3414 91.3896 42.3437 94.0351V145.965C42.3414 148.605 42.9918 151.186 44.1514 153.559C46.198 157.724 49.7096 161.3 54.2228 164.426C61.0085 169.096 70.1652 172.801 80.9468 175.411C91.726 178.008 104.13 179.478 117.343 179.478C137.48 179.47 155.72 176.084 169.237 170.425C175.998 167.586 181.597 164.181 185.678 160.146C187.713 158.13 189.368 155.939 190.534 153.559C191.695 151.186 192.346 148.605 192.343 145.965V94.0351C192.346 91.3893 191.696 88.8117 190.534 86.4381ZM62.1083 82.0966C63.9563 80.7138 66.1231 79.5349 68.4558 78.4708C70.7884 77.4094 73.2815 76.4701 75.7369 75.6563C80.6611 74.0312 85.3674 72.9264 88.3832 72.4881C90.3268 72.2133 92.1288 73.5607 92.4036 75.5069C92.6813 77.4475 91.334 79.2495 89.3901 79.5243C87.6183 79.7751 84.5995 80.4284 81.3224 81.3727C78.0396 82.3116 74.4467 83.5503 71.4089 84.9413C69.3836 85.8586 67.6032 86.8576 66.373 87.7884C64.7998 88.9617 62.5732 88.6459 61.3973 87.0753C60.2189 85.5044 60.5377 83.2749 62.1083 82.0966ZM185.234 145.965C185.231 147.456 184.883 148.915 184.142 150.442C182.857 153.099 180.266 155.93 176.426 158.57C170.682 162.544 162.236 166.053 152.072 168.495C141.908 170.95 130.024 172.368 117.343 172.368C98.0248 172.376 80.539 169.055 68.1971 163.87C62.0292 161.29 57.165 158.235 54.0156 155.1C52.4368 153.538 51.2828 151.961 50.5422 150.442C49.8019 148.915 49.4535 147.456 49.4535 145.965V138.771C50.8744 140.129 52.4693 141.408 54.2225 142.622C61.0082 147.293 70.1649 151 80.9465 153.608C91.7257 156.205 104.13 157.674 117.342 157.674C137.479 157.669 155.719 154.28 169.236 148.621C175.764 145.88 181.191 142.611 185.234 138.759V145.965H185.234ZM185.234 124.159C185.231 125.653 184.883 127.118 184.142 128.639C182.857 131.296 180.266 134.13 176.426 136.77C170.682 140.744 162.236 144.253 152.072 146.7C141.908 149.15 130.024 150.568 117.343 150.568C98.0248 150.576 80.539 147.253 68.1971 142.067C62.0292 139.487 57.165 136.433 54.0156 133.3C52.4368 131.735 51.2828 130.159 50.5422 128.64C49.8019 127.118 49.4535 125.654 49.4535 124.159V122.725C50.1206 122.888 50.8146 122.986 51.5277 122.986C56.3834 122.986 60.3197 119.053 60.3197 114.194V111.091C60.3221 109.866 60.8096 108.783 61.6123 107.972C62.4183 107.172 63.5017 106.684 64.7263 106.684C65.9538 106.684 67.0372 107.172 67.8458 107.972C68.6485 108.783 69.1331 109.866 69.1357 111.091V122.025C69.1387 127.608 73.6571 132.121 79.2317 132.123C84.8093 132.121 89.3277 127.608 89.3304 122.025V117.618C89.3304 116.391 89.8176 115.31 90.6203 114.502C91.426 113.701 92.5094 113.211 93.7369 113.211C94.9644 113.211 96.0478 113.701 96.8538 114.502C97.6539 115.31 98.144 116.391 98.144 117.618V130.847C98.1493 136.775 102.948 141.577 108.877 141.577C114.802 141.575 119.604 136.775 119.607 130.847V123.204C119.607 121.802 120.164 120.555 121.084 119.635C122.004 118.715 123.248 118.16 124.647 118.157C126.052 118.16 127.293 118.715 128.216 119.635C129.13 120.558 129.691 121.802 129.691 123.204V126.405C129.697 131.982 134.213 136.498 139.787 136.498C145.364 136.498 149.883 131.982 149.883 126.405V119.518V116.252C149.888 114.85 150.444 113.612 151.361 112.689C152.283 111.771 153.525 111.213 154.929 111.213C156.329 111.213 157.572 111.771 158.495 112.689C159.41 113.611 159.97 114.85 159.97 116.252V120.797C159.973 125.882 164.089 130 169.171 130C174.256 130 178.371 125.882 178.376 120.797V116.331V107.629C178.376 106.651 178.763 105.794 179.4 105.154C180.045 104.515 180.903 104.125 181.877 104.125C182.852 104.125 183.712 104.515 184.354 105.154C184.773 105.576 185.07 106.099 185.233 106.681V124.159H185.234Z" fill="#523C29"/>
</g>
<defs>
<clipPath id="clip0_742_178">
<rect width="150" height="150" fill="white" transform="translate(42.3438 45)"/>
</clipPath>
</defs>
</svg>
